0
SECTION
2
HEADER
9
$INSUNITS
70
4
9
$ACADVER
1
AC1014
9
$HANDSEED
5
FFFF
0
ENDSEC
0
SECTION
2
TABLES
0
TABLE
2
VPORT
5
8
100
AcDbSymbolTable
0
ENDTAB
0
TABLE
2
LTYPE
5
5
100
AcDbSymbolTable
0
LTYPE
5
14
100
AcDbSymbolTableRecord
100
AcDbLinetypeTableRecord
2
BYBLOCK
70
0
0
LTYPE
5
15
100
AcDbSymbolTableRecord
100
AcDbLinetypeTableRecord
2
BYLAYER
70
0
0
ENDTAB
0
TABLE
2
LAYER
5
2
100
AcDbSymbolTable
70
2
0
LAYER
5
50
100
AcDbSymbolTableRecord
100
AcDbLayerTableRecord
2
0
70
0
6
CONTINUOUS
0
ENDTAB
0
TABLE
2
STYLE
5
3
100
AcDbSymbolTable
70
1
0
STYLE
5
11
100
AcDbSymbolTableRecord
100
AcDbTextStyleTableRecord
2
STANDARD
70
0
0
ENDTAB
0
TABLE
2
VIEW
5
6
100
AcDbSymbolTable
70
0
0
ENDTAB
0
TABLE
2
UCS
5
7
100
AcDbSymbolTable
70
0
0
ENDTAB
0
TABLE
2
APPID
5
9
100
AcDbSymbolTable
70
2
0
APPID
5
12
100
AcDbSymbolTableRecord
100
AcDbRegAppTableRecord
2
ACAD
70
0
0
ENDTAB
0
TABLE
2
DIMSTYLE
5
A
100
AcDbSymbolTable
70
1
0
ENDTAB
0
TABLE
2
BLOCK_RECORD
5
1
100
AcDbSymbolTable
70
1
0
BLOCK_RECORD
5
1F
100
AcDbSymbolTableRecord
100
AcDbBlockTableRecord
2
*MODEL_SPACE
0
BLOCK_RECORD
5
1B
100
AcDbSymbolTableRecord
100
AcDbBlockTableRecord
2
*PAPER_SPACE
0
ENDTAB
0
ENDSEC
0
SECTION
2
BLOCKS
0
BLOCK
5
20
100
AcDbEntity
100
AcDbBlockBegin
2
*MODEL_SPACE
0
ENDBLK
5
21
100
AcDbEntity
100
AcDbBlockEnd
0
BLOCK
5
1C
100
AcDbEntity
100
AcDbBlockBegin
2
*PAPER_SPACE
0
ENDBLK
5
1D
100
AcDbEntity
100
AcDbBlockEnd
0
ENDSEC
0
SECTION
2
ENTITIES
0
LWPOLYLINE
5
100
100
AcDbEntity
8
0
100
AcDbPolyline
90
8
70
1
43
0.0
10
32.262804829432518
20
1.8468031276864139
10
32.262804829432518
20
5.8468061388852268
10
40.262804829432511
20
5.8468061388852268
10
40.262804829432511
20
2.000000029802314
10
34.262804516508645
20
2.000000029802314
10
34.26280451650868
20
-12.403194606172931
10
30.2628044718052
20
-12.403194606172949
10
30.262804471805165
20
1.8468031276863961
0
CIRCLE
5
101
100
AcDbEntity
8
0
100
AcDbCircle
10
-252.49999999999994
20
54.500000000000028
30
0
40
1.25
210
0
220
-0
230
1
0
CIRCLE
5
102
100
AcDbEntity
8
0
100
AcDbCircle
10
-225.49999999999994
20
85.499999999999844
30
0
40
1.25
210
0
220
-0
230
1
0
CIRCLE
5
103
100
AcDbEntity
8
0
100
AcDbCircle
10
-252.49999999999994
20
94.499999999999801
30
0
40
1.25
210
0
220
-0
230
1
0
CIRCLE
5
104
100
AcDbEntity
8
0
100
AcDbCircle
10
-252.49999999999997
20
125.49999999999962
30
0
40
1.25
210
0
220
-0
230
1
0
CIRCLE
5
105
100
AcDbEntity
8
0
100
AcDbCircle
10
-225.49999999999994
20
94.499999999999815
30
0
40
1.25
210
0
220
-0
230
1
0
CIRCLE
5
106
100
AcDbEntity
8
0
100
AcDbCircle
10
-225.49999999999994
20
125.49999999999962
30
0
40
1.25
210
0
220
-0
230
1
0
CIRCLE
5
107
100
AcDbEntity
8
0
100
AcDbCircle
10
-225.49999999999994
20
54.500000000000036
30
0
40
1.25
210
0
220
-0
230
1
0
CIRCLE
5
108
100
AcDbEntity
8
0
100
AcDbCircle
10
-252.49999999999997
20
85.499999999999844
30
0
40
1.25
210
0
220
-0
230
1
0
LWPOLYLINE
5
109
100
AcDbEntity
8
0
100
AcDbPolyline
90
12
70
1
43
0.0
10
-198.73691049571505
20
-6.2635112914375313
10
-201.7369106487796
20
-6.2635112914371973
10
-201.7369106487796
20
-10.263511291437197
10
-198.73691049571511
20
-10.263511291437393
10
-198.73691049571511
20
-22.513510166399673
10
-202.73691042865994
20
-22.513510166399673
10
-202.73691042865994
20
-10.263511291437393
10
-209.7369106487796
20
-10.263511291437197
10
-209.7369106487796
20
-6.2635112914371973
10
-202.73691042865983
20
-6.2635112914375313
10
-202.7369104286598
20
2.4864867416092018
10
-198.73691049571502
20
2.486486741609184
0
LWPOLYLINE
5
110
100
AcDbEntity
8
0
100
AcDbPolyline
90
6
70
1
43
0.0
10
-143.86120485903535
20
72.542202823011792
10
-143.86120481433207
20
84.542202867715275
10
-139.86120481433207
20
84.542202867715275
10
-139.86120481433207
20
76.542202867715261
10
-135.86120485903538
20
76.542202823011806
10
-135.86120485903538
20
72.542202823011792
0
LWPOLYLINE
5
111
100
AcDbEntity
8
0
100
AcDbPolyline
90
4
70
1
43
0.0
10
-119.86120485903535
20
76.542202823011806
10
-119.86120485903535
20
72.542202823011792
10
-127.86120485903537
20
72.542202823011792
10
-127.86120485903537
20
76.542202823011806
0
LWPOLYLINE
5
112
100
AcDbEntity
8
0
100
AcDbPolyline
90
4
70
1
43
0.0
10
-139.86120481433207
20
108.54220286771529
10
-143.86120481433207
20
108.54220286771529
10
-143.86120485903552
20
116.54220286771526
10
-139.8612048143321
20
116.54220286771526
0
LWPOLYLINE
5
113
100
AcDbEntity
8
0
100
AcDbPolyline
90
4
70
1
43
0.0
10
-110.36120439709936
20
107.96320282301197
10
-110.36120439709936
20
99.963202823011969
10
-114.36120439709937
20
99.963202823011969
10
-114.36120439709937
20
107.96320282301197
0
LWPOLYLINE
5
114
100
AcDbEntity
8
0
100
AcDbPolyline
90
4
70
1
43
0.0
10
-114.36120439709937
20
91.963202823011954
10
-110.36120439709936
20
91.963202823011954
10
-110.36120439709936
20
83.963202823011954
10
-114.36120439709937
20
83.963202823011954
0
LWPOLYLINE
5
115
100
AcDbEntity
8
0
100
AcDbPolyline
90
4
70
1
43
0.0
10
-114.36120439709937
20
75.96320282301194
10
-110.36120439709936
20
75.96320282301194
10
-110.3612043896488
20
67.963202823011954
10
-114.36120438964876
20
67.963202823011954
0
LWPOLYLINE
5
116
100
AcDbEntity
8
0
100
AcDbPolyline
90
4
70
1
43
0.0
10
-139.86120481433207
20
92.542202867715275
10
-143.86120481433207
20
92.542202867715275
10
-143.86120481433207
20
100.54220286771528
10
-139.86120481433207
20
100.54220286771528
0
LWPOLYLINE
5
117
100
AcDbEntity
8
0
100
AcDbPolyline
90
4
70
1
43
0.0
10
-225.73691064877963
20
-6.2635112914371973
10
-217.73691064877963
20
-6.2635112914371973
10
-217.73691064877963
20
-10.263511291437197
10
-225.73691064877963
20
-10.263511291437197
0
LWPOLYLINE
5
118
100
AcDbEntity
8
0
100
AcDbPolyline
90
4
70
1
43
0.0
10
-209.73691042865934
20
28.236488766304966
10
-209.73691042865934
20
24.236488766304966
10
-217.73691042865934
20
24.236488766304966
10
-217.73691042865934
20
28.236488766304966
0
LWPOLYLINE
5
119
100
AcDbEntity
8
0
100
AcDbPolyline
90
4
70
1
43
0.0
10
-225.73691042865934
20
28.236488766304966
10
-225.73691042865934
20
24.236488766304966
10
-233.73691042865937
20
24.236488766304966
10
-233.73691042865937
20
28.236488766304966
0
LWPOLYLINE
5
120
100
AcDbEntity
8
0
100
AcDbPolyline
90
4
70
1
43
0.0
10
-193.73691042865931
20
28.236488766304966
10
-193.73691042865931
20
24.236488766304966
10
-201.73691042865931
20
24.236488766304966
10
-201.73691042865931
20
28.236488766304966
0
LWPOLYLINE
5
121
100
AcDbEntity
8
0
100
AcDbPolyline
90
4
70
1
43
0.0
10
-241.73691042865937
20
28.236909484298458
10
-241.73691042865937
20
24.236488766304966
10
-249.73690937812748
20
24.236488766305015
10
-249.73690937812748
20
28.236909484298458
0
LWPOLYLINE
5
122
100
AcDbEntity
8
0
100
AcDbPolyline
90
8
70
1
43
0.0
10
32.26280482943244
20
23.349806138885214
10
30.262804471805094
20
23.349806138885114
10
30.26280447180504
20
38.596806138885114
10
34.262804516508524
20
38.596806138885128
10
34.262804516508574
20
23.349806138885132
10
40.262804829432433
20
23.349806138885214
10
40.262804829432433
20
19.349806138885214
10
32.26280482943244
20
19.349806138885214
0
LWPOLYLINE
5
123
100
AcDbEntity
8
0
100
AcDbPolyline
90
4
70
1
43
0.0
10
48.262804829432511
20
5.8468061388852268
10
56.262804829432497
20
5.8468061388852179
10
56.262804829432497
20
1.8468053557601412
10
48.262804829432469
20
1.8468053557601407
0
LWPOLYLINE
5
124
100
AcDbEntity
8
0
100
AcDbPolyline
90
4
70
1
43
0.0
10
48.262804829432433
20
19.349806138885214
10
48.262804829432433
20
23.349806138885214
10
56.262804829432405
20
23.349806138885214
10
56.262804829432405
20
19.349806138885171
0
LWPOLYLINE
5
125
100
AcDbEntity
8
0
100
AcDbPolyline
90
4
70
1
43
0.0
10
-77.236911341966831
20
35.623174993847819
10
-77.236911341966831
20
39.623174993847698
10
-68.236911341966817
20
39.623174993847698
10
-68.236911341966817
20
35.623174993847819
0
LWPOLYLINE
5
126
100
AcDbEntity
8
0
100
AcDbPolyline
90
4
70
1
43
0.0
10
-95.236911341966817
20
35.623174993847819
10
-95.236911341966817
20
39.623174993847698
10
-86.236911341966831
20
39.623174993847698
10
-86.236911341966831
20
35.623174993847819
0
LWPOLYLINE
5
127
100
AcDbEntity
8
0
100
AcDbPolyline
90
4
70
1
43
0.0
10
-113.23691134196682
20
35.623174993847819
10
-113.23691134196682
20
39.623174993847698
10
-104.23691134196682
20
39.623174993847698
10
-104.23691134196682
20
35.623174993847819
0
LWPOLYLINE
5
128
100
AcDbEntity
8
0
100
AcDbPolyline
90
4
70
1
43
0.0
10
-77.236911341966831
20
-8.3768250061523055
10
-68.236911341966817
20
-8.3768250061523055
10
-68.236911341966817
20
-12.376825006152302
10
-77.236911341966831
20
-12.376825006152302
0
LWPOLYLINE
5
129
100
AcDbEntity
8
0
100
AcDbPolyline
90
4
70
1
43
0.0
10
-113.23691134196682
20
-8.3768250061523055
10
-104.23691134196682
20
-8.3768250061523055
10
-104.23691134196682
20
-12.376825006152302
10
-113.23691134196682
20
-12.376825006152302
0
LWPOLYLINE
5
130
100
AcDbEntity
8
0
100
AcDbPolyline
90
4
70
1
43
0.0
10
-95.236911341966817
20
-8.3768250061523055
10
-86.236911341966831
20
-8.3768250061523055
10
-86.236911341966831
20
-12.376825006152302
10
-95.236911341966817
20
-12.376825006152302
0
LWPOLYLINE
5
131
100
AcDbEntity
8
0
100
AcDbPolyline
90
4
70
1
43
0.0
10
-138.37037595376555
20
-73.456377571014599
10
-138.37037595376555
20
-65.456377571014571
10
-134.37037595376557
20
-65.456377571014571
10
-134.37037595376557
20
-73.456377571014599
0
LWPOLYLINE
5
132
100
AcDbEntity
8
0
100
AcDbPolyline
90
4
70
1
43
0.0
10
-119.37037595376557
20
-81.456377571014528
10
-115.37037595376557
20
-81.456377571014528
10
-115.37037595376559
20
-89.456377571014528
10
-119.37037595376557
20
-89.456377571014528
0
LWPOLYLINE
5
133
100
AcDbEntity
8
0
100
AcDbPolyline
90
4
70
1
43
0.0
10
-119.37037595376557
20
-65.456377571014528
10
-115.37037595376557
20
-65.456377571014528
10
-115.37037595376557
20
-73.456377571014528
10
-119.37037595376557
20
-73.456377571014528
0
LWPOLYLINE
5
134
100
AcDbEntity
8
0
100
AcDbPolyline
90
6
70
1
43
0.0
10
-119.37037595376557
20
-49.456377571014528
10
-123.37037595376543
20
-49.456378256467943
10
-123.37037595376543
20
-45.456378256467936
10
-115.37037595376545
20
-45.456378256467936
10
-115.37037595376557
20
-57.456377571014528
10
-119.37037595376557
20
-57.456377571014528
0
LWPOLYLINE
5
135
100
AcDbEntity
8
0
100
AcDbPolyline
90
4
70
1
43
0.0
10
-138.37037595376555
20
-81.456377571014556
10
-134.37037595376555
20
-81.456377571014556
10
-134.37037595376557
20
-89.456377571014599
10
-138.37037595376555
20
-89.456377571014599
0
LWPOLYLINE
5
136
100
AcDbEntity
8
0
100
AcDbPolyline
90
6
70
1
43
0.0
10
-131.37037595376543
20
-49.456378256467943
10
-134.37037595376557
20
-49.456377571014556
10
-134.37037595376557
20
-57.456377571014599
10
-138.37037595376555
20
-57.456377571014599
10
-138.37037595376543
20
-45.456378256467936
10
-131.37037595376543
20
-45.456378256467936
0
LWPOLYLINE
5
137
100
AcDbEntity
8
0
100
AcDbPolyline
90
10
70
1
43
0.0
10
-273
20
-25
10
-150
20
-25
10
-150
20
-100
10
-99.999999999999972
20
-100
10
-99.999999999999972
20
-30
10
63.000000000000007
20
-30
10
62.999999999999986
20
60
10
-95.36046667362875
20
60
10
-95.36046667362875
20
134
10
-273
20
134
0
LWPOLYLINE
5
138
100
AcDbEntity
8
0
100
AcDbPolyline
90
4
70
1
43
0.0
10
-88.23691134196693
20
-22.376825006152316
10
-88.23691134196693
20
-14.376825006152316
10
-84.236911341966604
20
-14.376825006152316
10
-84.236911341966604
20
-22.376825006152316
0
LWPOLYLINE
5
139
100
AcDbEntity
8
0
100
AcDbPolyline
90
4
70
1
43
0.0
10
-84.236911341966604
20
41.623174993847691
10
-88.23691134196666
20
41.623174993847691
10
-88.23691134196676
20
49.623174993847684
10
-84.236911341966604
20
49.623174993847684
0
LWPOLYLINE
5
140
100
AcDbEntity
8
0
100
AcDbPolyline
90
4
70
1
43
0.0
10
-84.236911341966604
20
-6.3768250061523126
10
-88.236911341966902
20
-6.3768250061523126
10
-88.236911341966859
20
1.6231749938476869
10
-84.236911341966604
20
1.6231749938476869
0
LWPOLYLINE
5
141
100
AcDbEntity
8
0
100
AcDbPolyline
90
4
70
1
43
0.0
10
-84.236911341966604
20
25.623174993847691
10
-88.236911341966731
20
25.623174993847691
10
-88.236911341966703
20
33.623174993847691
10
-84.236911341966604
20
33.623174993847691
0
LWPOLYLINE
5
142
100
AcDbEntity
8
0
100
AcDbPolyline
90
4
70
1
43
0.0
10
-84.236911341966604
20
25.623174993847691
10
-76.236911341966604
20
25.623174993847691
10
-76.236911341966604
20
21.623174993847691
10
-84.236911341966604
20
21.623174993847691
0
LWPOLYLINE
5
143
100
AcDbEntity
8
0
100
AcDbPolyline
90
4
70
1
43
0.0
10
-84.236911341966604
20
9.6231749938476874
10
-88.236911341966817
20
9.6231749938476874
10
-88.236911341966788
20
17.623174993847684
10
-84.236911341966604
20
17.623174993847684
0
CIRCLE
5
144
100
AcDbEntity
8
0
100
AcDbCircle
10
-214.45999999999981
20
116.03000000000011
30
0
40
1.5875000000000126
210
0
220
-0
230
1
0
CIRCLE
5
145
100
AcDbEntity
8
0
100
AcDbCircle
10
-181.4399999999998
20
63.960000000000164
30
0
40
1.5875000000000126
210
0
220
-0
230
1
0
CIRCLE
5
146
100
AcDbEntity
8
0
100
AcDbCircle
10
-166.19999999999982
20
114.76000000000013
30
0
40
1.5875000000000126
210
0
220
-0
230
1
0
CIRCLE
5
147
100
AcDbEntity
8
0
100
AcDbCircle
10
-209.37999999999982
20
63.960000000000157
30
0
40
1.5875000000000126
210
0
220
-0
230
1
0
CIRCLE
5
148
100
AcDbEntity
8
0
100
AcDbCircle
10
-264.10967473652937
20
85.853677499473818
30
0
40
1.4999999999999858
210
-0
220
0
230
1
0
CIRCLE
5
149
100
AcDbEntity
8
0
100
AcDbCircle
10
-264.10227973652928
20
94.853674461360796
30
0
40
1.4999999999999858
210
-0
220
0
230
1
0
LWPOLYLINE
5
150
100
AcDbEntity
8
0
100
AcDbPolyline
90
4
70
1
43
0.0
10
-198.73691049571488
20
48.486488268978306
10
-198.73691049571488
20
37.986488268978313
10
-202.73691049571485
20
37.986488268978313
10
-202.73691049571485
20
48.486488268978306
0
ENDSEC
0
SECTION
2
OBJECTS
0
DICTIONARY
5
C
100
AcDbDictionary
3
ACAD_GROUP
350
D
3
ACAD_MLINESTYLE
350
17
0
DICTIONARY
5
D
100
AcDbDictionary
0
DICTIONARY
5
1A
330
C
100
AcDbDictionary
0
DICTIONARY
5
17
100
AcDbDictionary
0
ENDSEC
0
EOF
