0
SECTION
2
HEADER
9
$INSUNITS
70
4
9
$ACADVER
1
AC1014
9
$HANDSEED
5
FFFF
0
ENDSEC
0
SECTION
2
TABLES
0
TABLE
2
VPORT
5
8
100
AcDbSymbolTable
0
ENDTAB
0
TABLE
2
LTYPE
5
5
100
AcDbSymbolTable
0
LTYPE
5
14
100
AcDbSymbolTableRecord
100
AcDbLinetypeTableRecord
2
BYBLOCK
70
0
0
LTYPE
5
15
100
AcDbSymbolTableRecord
100
AcDbLinetypeTableRecord
2
BYLAYER
70
0
0
ENDTAB
0
TABLE
2
LAYER
5
2
100
AcDbSymbolTable
70
2
0
LAYER
5
50
100
AcDbSymbolTableRecord
100
AcDbLayerTableRecord
2
0
70
0
6
CONTINUOUS
0
ENDTAB
0
TABLE
2
STYLE
5
3
100
AcDbSymbolTable
70
1
0
STYLE
5
11
100
AcDbSymbolTableRecord
100
AcDbTextStyleTableRecord
2
STANDARD
70
0
0
ENDTAB
0
TABLE
2
VIEW
5
6
100
AcDbSymbolTable
70
0
0
ENDTAB
0
TABLE
2
UCS
5
7
100
AcDbSymbolTable
70
0
0
ENDTAB
0
TABLE
2
APPID
5
9
100
AcDbSymbolTable
70
2
0
APPID
5
12
100
AcDbSymbolTableRecord
100
AcDbRegAppTableRecord
2
ACAD
70
0
0
ENDTAB
0
TABLE
2
DIMSTYLE
5
A
100
AcDbSymbolTable
70
1
0
ENDTAB
0
TABLE
2
BLOCK_RECORD
5
1
100
AcDbSymbolTable
70
1
0
BLOCK_RECORD
5
1F
100
AcDbSymbolTableRecord
100
AcDbBlockTableRecord
2
*MODEL_SPACE
0
BLOCK_RECORD
5
1B
100
AcDbSymbolTableRecord
100
AcDbBlockTableRecord
2
*PAPER_SPACE
0
ENDTAB
0
ENDSEC
0
SECTION
2
BLOCKS
0
BLOCK
5
20
100
AcDbEntity
100
AcDbBlockBegin
2
*MODEL_SPACE
0
ENDBLK
5
21
100
AcDbEntity
100
AcDbBlockEnd
0
BLOCK
5
1C
100
AcDbEntity
100
AcDbBlockBegin
2
*PAPER_SPACE
0
ENDBLK
5
1D
100
AcDbEntity
100
AcDbBlockEnd
0
ENDSEC
0
SECTION
2
ENTITIES
0
LWPOLYLINE
5
100
100
AcDbEntity
8
0
100
AcDbPolyline
90
48
70
1
43
0.0
10
138.37037641570137
20
-5.5511151231257835e-15
10
138.37037595376563
20
21.183412971052981
10
134.37037595376563
20
21.183412971052981
10
134.37037595376563
20
29.183412971052981
10
138.37037595376563
20
29.183412971052974
10
138.37037595376563
20
37.183412971052974
10
134.37037595376563
20
37.183412971052974
10
134.37037595376563
20
45.183412971052974
10
138.37037595376563
20
45.18341297105296
10
138.37037595376563
20
53.18341297105296
10
134.37037595376563
20
53.18341297105296
10
134.37037595376563
20
61.18341297105296
10
138.37037595376563
20
61.18341297105296
10
138.37037595376563
20
69.18341297105296
10
134.37037595376566
20
69.18341297105296
10
134.37037595376566
20
77.18341297105296
10
138.37037595376563
20
77.183412971052945
10
138.37037595376563
20
85.183412971052945
10
134.37037595376566
20
85.183412971052945
10
134.37037595376566
20
93.183412971052945
10
138.37037595376563
20
93.183412971052945
10
138.37037641570166
20
99.000001415610285
10
115.37037595376567
20
99.000001415610285
10
115.37037595376567
20
93.183412971052945
10
119.37037595376565
20
93.183412971052945
10
119.37037595376565
20
85.183412971052945
10
115.37037595376566
20
85.183412971052945
10
115.37037595376566
20
77.183412971052945
10
119.37037595376565
20
77.18341297105296
10
119.37037595376565
20
69.18341297105296
10
115.37037595376566
20
69.183412971052974
10
115.37037595376566
20
61.183412971052967
10
119.37037595376565
20
61.183412971052967
10
119.37037595376565
20
53.183412971052974
10
115.37037595376563
20
53.183412971052974
10
115.37037595376566
20
45.183412971052974
10
119.37037595376565
20
45.183412971052974
10
119.37037595376565
20
37.183412971052974
10
115.37037595376566
20
37.183412971052981
10
115.37037595376566
20
29.183412971052984
10
119.37037595376565
20
29.183412971052981
10
119.37037595376565
20
21.183412971052981
10
115.37037595376566
20
21.183412971052988
10
115.37037595376545
20
0
10
123.37037595376543
20
-1.7763568394002505e-15
10
123.37037595376543
20
3.9999999999999969
10
131.37037595376543
20
3.9999999999999951
10
131.37037595376543
20
-3.8857805861880479e-15
0
CIRCLE
5
101
100
AcDbEntity
8
0
100
AcDbCircle
10
126.45547871073965
20
93.600184625392785
30
0
40
2.7500000000000031
210
-1.9721522630525295e-31
220
8.7581154020301067e-47
230
1
0
LWPOLYLINE
5
102
100
AcDbEntity
8
0
100
AcDbPolyline
90
4
70
1
43
0.0
10
120.87037602827149
20
89.000001266598673
10
132.87037634119585
20
89.000001266598673
10
132.87037634119585
20
64.000000894069643
10
120.87037602827149
20
64.000000894069643
0
CIRCLE
5
103
100
AcDbEntity
8
0
100
AcDbCircle
10
126.45553789674926
20
58.599762468511408
30
0
40
2.7500000000000031
210
-1.9721522630525295e-31
220
8.7581154020301067e-47
230
1
0
ENDSEC
0
SECTION
2
OBJECTS
0
DICTIONARY
5
C
100
AcDbDictionary
3
ACAD_GROUP
350
D
3
ACAD_MLINESTYLE
350
17
0
DICTIONARY
5
D
100
AcDbDictionary
0
DICTIONARY
5
1A
330
C
100
AcDbDictionary
0
DICTIONARY
5
17
100
AcDbDictionary
0
ENDSEC
0
EOF
