0
SECTION
2
HEADER
9
$INSUNITS
70
4
9
$ACADVER
1
AC1014
9
$HANDSEED
5
FFFF
0
ENDSEC
0
SECTION
2
TABLES
0
TABLE
2
VPORT
5
8
100
AcDbSymbolTable
0
ENDTAB
0
TABLE
2
LTYPE
5
5
100
AcDbSymbolTable
0
LTYPE
5
14
100
AcDbSymbolTableRecord
100
AcDbLinetypeTableRecord
2
BYBLOCK
70
0
0
LTYPE
5
15
100
AcDbSymbolTableRecord
100
AcDbLinetypeTableRecord
2
BYLAYER
70
0
0
ENDTAB
0
TABLE
2
LAYER
5
2
100
AcDbSymbolTable
70
2
0
LAYER
5
50
100
AcDbSymbolTableRecord
100
AcDbLayerTableRecord
2
0
70
0
6
CONTINUOUS
0
ENDTAB
0
TABLE
2
STYLE
5
3
100
AcDbSymbolTable
70
1
0
STYLE
5
11
100
AcDbSymbolTableRecord
100
AcDbTextStyleTableRecord
2
STANDARD
70
0
0
ENDTAB
0
TABLE
2
VIEW
5
6
100
AcDbSymbolTable
70
0
0
ENDTAB
0
TABLE
2
UCS
5
7
100
AcDbSymbolTable
70
0
0
ENDTAB
0
TABLE
2
APPID
5
9
100
AcDbSymbolTable
70
2
0
APPID
5
12
100
AcDbSymbolTableRecord
100
AcDbRegAppTableRecord
2
ACAD
70
0
0
ENDTAB
0
TABLE
2
DIMSTYLE
5
A
100
AcDbSymbolTable
70
1
0
ENDTAB
0
TABLE
2
BLOCK_RECORD
5
1
100
AcDbSymbolTable
70
1
0
BLOCK_RECORD
5
1F
100
AcDbSymbolTableRecord
100
AcDbBlockTableRecord
2
*MODEL_SPACE
0
BLOCK_RECORD
5
1B
100
AcDbSymbolTableRecord
100
AcDbBlockTableRecord
2
*PAPER_SPACE
0
ENDTAB
0
ENDSEC
0
SECTION
2
BLOCKS
0
BLOCK
5
20
100
AcDbEntity
100
AcDbBlockBegin
2
*MODEL_SPACE
0
ENDBLK
5
21
100
AcDbEntity
100
AcDbBlockEnd
0
BLOCK
5
1C
100
AcDbEntity
100
AcDbBlockBegin
2
*PAPER_SPACE
0
ENDBLK
5
1D
100
AcDbEntity
100
AcDbBlockEnd
0
ENDSEC
0
SECTION
2
ENTITIES
0
CIRCLE
5
100
100
AcDbEntity
8
0
100
AcDbCircle
10
99.542201831938044
20
79.000001177191649
30
0
40
4.9999999999999973
210
1.8488927466119224e-32
220
-2.4651903288156613e-32
230
1
0
CIRCLE
5
101
100
AcDbEntity
8
0
100
AcDbCircle
10
117.54220183938861
20
69.99999858438963
30
1.7763568394002505e-14
40
2.0000000000000027
210
1.8488927466119219e-32
220
-1.2325951644078303e-32
230
1
0
CIRCLE
5
102
100
AcDbEntity
8
0
100
AcDbCircle
10
81.542202644051372
20
69.999998584389601
30
0
40
1.9999999999999962
210
1.8488927466119221e-32
220
-2.4651903288156613e-32
230
1
0
LWPOLYLINE
5
103
100
AcDbEntity
8
0
100
AcDbPolyline
90
34
70
1
43
0.0
10
123.54220218956593
20
4.0000000596046323
10
123.5422021895659
20
99.00000005960456
10
76.542201489211351
20
99.00000005960456
10
76.542201444507867
20
91.000000059604545
10
72.542201444507882
20
91.00000005960456
10
72.542201444507867
20
83.000000059604574
10
76.542201444507882
20
83.000000059604574
10
76.542201444507882
20
75.000000059604588
10
72.542201444507882
20
75.00000005960456
10
72.542201444507896
20
67.000000059604574
10
76.542201444507882
20
67.00000005960456
10
76.542201444507882
20
59.000000059604574
10
72.542201444507896
20
59.000000059604574
10
72.542201444507896
20
51.000000059604588
10
76.542201444507882
20
51.000000059604574
10
76.542201444507882
20
43.000000059604588
10
72.542201444507896
20
43.000000059604588
10
72.542201444507896
20
35.000000059604595
10
76.542201444507896
20
35.000000059604602
10
76.542201444507896
20
27.000000059604609
10
72.542201444507896
20
27.000000059604613
10
72.542201444507896
20
19.000000059604616
10
76.54220144450791
20
19.000000059604616
10
76.542201489211394
20
5.9604619018216454e-08
10
84.542201489211379
20
5.9604622237863225e-08
10
84.542201489211379
20
4.0000000596046199
10
92.542201489211365
20
4.0000000596046226
10
92.542201489211365
20
5.9604625124443089e-08
10
100.54220148921135
20
5.9604627788978348e-08
10
100.54220148921135
20
4.0000000596046252
10
108.54220148921135
20
4.0000000596046279
10
108.54220148921135
20
5.96046301204467e-08
10
116.54220148921134
20
5.9604632784981959e-08
10
116.54220148921134
20
4.0000000596046306
0
ENDSEC
0
SECTION
2
OBJECTS
0
DICTIONARY
5
C
100
AcDbDictionary
3
ACAD_GROUP
350
D
3
ACAD_MLINESTYLE
350
17
0
DICTIONARY
5
D
100
AcDbDictionary
0
DICTIONARY
5
1A
330
C
100
AcDbDictionary
0
DICTIONARY
5
17
100
AcDbDictionary
0
ENDSEC
0
EOF
