0
SECTION
2
HEADER
9
$INSUNITS
70
4
9
$ACADVER
1
AC1014
9
$HANDSEED
5
FFFF
0
ENDSEC
0
SECTION
2
TABLES
0
TABLE
2
VPORT
5
8
100
AcDbSymbolTable
0
ENDTAB
0
TABLE
2
LTYPE
5
5
100
AcDbSymbolTable
0
LTYPE
5
14
100
AcDbSymbolTableRecord
100
AcDbLinetypeTableRecord
2
BYBLOCK
70
0
0
LTYPE
5
15
100
AcDbSymbolTableRecord
100
AcDbLinetypeTableRecord
2
BYLAYER
70
0
0
ENDTAB
0
TABLE
2
LAYER
5
2
100
AcDbSymbolTable
70
2
0
LAYER
5
50
100
AcDbSymbolTableRecord
100
AcDbLayerTableRecord
2
0
70
0
6
CONTINUOUS
0
ENDTAB
0
TABLE
2
STYLE
5
3
100
AcDbSymbolTable
70
1
0
STYLE
5
11
100
AcDbSymbolTableRecord
100
AcDbTextStyleTableRecord
2
STANDARD
70
0
0
ENDTAB
0
TABLE
2
VIEW
5
6
100
AcDbSymbolTable
70
0
0
ENDTAB
0
TABLE
2
UCS
5
7
100
AcDbSymbolTable
70
0
0
ENDTAB
0
TABLE
2
APPID
5
9
100
AcDbSymbolTable
70
2
0
APPID
5
12
100
AcDbSymbolTableRecord
100
AcDbRegAppTableRecord
2
ACAD
70
0
0
ENDTAB
0
TABLE
2
DIMSTYLE
5
A
100
AcDbSymbolTable
70
1
0
ENDTAB
0
TABLE
2
BLOCK_RECORD
5
1
100
AcDbSymbolTable
70
1
0
BLOCK_RECORD
5
1F
100
AcDbSymbolTableRecord
100
AcDbBlockTableRecord
2
*MODEL_SPACE
0
BLOCK_RECORD
5
1B
100
AcDbSymbolTableRecord
100
AcDbBlockTableRecord
2
*PAPER_SPACE
0
ENDTAB
0
ENDSEC
0
SECTION
2
BLOCKS
0
BLOCK
5
20
100
AcDbEntity
100
AcDbBlockBegin
2
*MODEL_SPACE
0
ENDBLK
5
21
100
AcDbEntity
100
AcDbBlockEnd
0
BLOCK
5
1C
100
AcDbEntity
100
AcDbBlockBegin
2
*PAPER_SPACE
0
ENDBLK
5
1D
100
AcDbEntity
100
AcDbBlockEnd
0
ENDSEC
0
SECTION
2
ENTITIES
0
CIRCLE
5
100
100
AcDbEntity
8
0
100
AcDbCircle
10
-126.46120660396086
20
58.599998779594806
30
8.8817841970012523e-15
40
2.7500000000000018
210
-1.8488927466122303e-32
220
-2.4651903288156619e-31
230
1
0
LWPOLYLINE
5
101
100
AcDbEntity
8
0
100
AcDbPolyline
90
4
70
1
43
0.0
10
-116.40932344478776
20
89.000001266598602
10
-116.40932344478776
20
63.793001266598623
10
-136.61032344478775
20
63.793001266598608
10
-136.61032344478775
20
89.000001266598588
0
CIRCLE
5
102
100
AcDbEntity
8
0
100
AcDbCircle
10
-126.46120660396086
20
93.599997997283836
30
0
40
2.7500000000000018
210
-1.8488927466122303e-32
220
-2.4651903288156619e-31
230
1
0
LWPOLYLINE
5
103
100
AcDbEntity
8
0
100
AcDbPolyline
90
34
70
1
43
0.0
10
-143.86120485903487
20
58.999999999999908
10
-139.86120384575591
20
58.999999999999908
10
-139.86120384575591
20
50.999999999999915
10
-143.86120485903487
20
50.999999999999908
10
-143.86120485903487
20
42.999999999999915
10
-139.86120384575591
20
42.999999999999915
10
-139.86120384575591
20
34.999999999999922
10
-143.86120485903487
20
34.999999999999936
10
-143.86120485903487
20
26.99999999999994
10
-139.86120384575591
20
26.999999999999943
10
-139.86120384575591
20
18.99999999999995
10
-143.86120485903487
20
18.999999999999943
10
-143.86120485903487
20
-5.1070259132757201e-14
10
-135.86120485903487
20
-5.1514348342607396e-14
10
-135.86120485903487
20
3.9999999999999458
10
-127.86120485903487
20
3.9999999999999454
10
-127.86120485903488
20
-5.2180482157382357e-14
10
-119.86120485903487
20
-5.2624571367232546e-14
10
-119.86120485903486
20
3.9999999999999454
10
-114.36120439709887
20
3.9999999999999449
10
-114.36120439709887
20
52.999999999999915
10
-110.36120438964829
20
52.999999999999915
10
-110.36120438964831
20
3.9999999999999503
10
-105.36120438964831
20
3.9999999999999507
10
-105.36120438964831
20
98.999999999999886
10
-143.86120485903484
20
98.999999999999886
10
-143.86120485903487
20
90.999999999999872
10
-139.86120384575591
20
90.999999999999886
10
-139.86120384575591
20
82.999999999999901
10
-143.86120485903487
20
82.999999999999901
10
-143.86120485903487
20
74.999999999999915
10
-139.86120384575591
20
74.999999999999886
10
-139.86120384575591
20
66.999999999999901
10
-143.86120485903487
20
66.999999999999901
0
ENDSEC
0
SECTION
2
OBJECTS
0
DICTIONARY
5
C
100
AcDbDictionary
3
ACAD_GROUP
350
D
3
ACAD_MLINESTYLE
350
17
0
DICTIONARY
5
D
100
AcDbDictionary
0
DICTIONARY
5
1A
330
C
100
AcDbDictionary
0
DICTIONARY
5
17
100
AcDbDictionary
0
ENDSEC
0
EOF
