0
SECTION
2
HEADER
9
$INSUNITS
70
4
9
$ACADVER
1
AC1014
9
$HANDSEED
5
FFFF
0
ENDSEC
0
SECTION
2
TABLES
0
TABLE
2
VPORT
5
8
100
AcDbSymbolTable
0
ENDTAB
0
TABLE
2
LTYPE
5
5
100
AcDbSymbolTable
0
LTYPE
5
14
100
AcDbSymbolTableRecord
100
AcDbLinetypeTableRecord
2
BYBLOCK
70
0
0
LTYPE
5
15
100
AcDbSymbolTableRecord
100
AcDbLinetypeTableRecord
2
BYLAYER
70
0
0
ENDTAB
0
TABLE
2
LAYER
5
2
100
AcDbSymbolTable
70
2
0
LAYER
5
50
100
AcDbSymbolTableRecord
100
AcDbLayerTableRecord
2
0
70
0
6
CONTINUOUS
0
ENDTAB
0
TABLE
2
STYLE
5
3
100
AcDbSymbolTable
70
1
0
STYLE
5
11
100
AcDbSymbolTableRecord
100
AcDbTextStyleTableRecord
2
STANDARD
70
0
0
ENDTAB
0
TABLE
2
VIEW
5
6
100
AcDbSymbolTable
70
0
0
ENDTAB
0
TABLE
2
UCS
5
7
100
AcDbSymbolTable
70
0
0
ENDTAB
0
TABLE
2
APPID
5
9
100
AcDbSymbolTable
70
2
0
APPID
5
12
100
AcDbSymbolTableRecord
100
AcDbRegAppTableRecord
2
ACAD
70
0
0
ENDTAB
0
TABLE
2
DIMSTYLE
5
A
100
AcDbSymbolTable
70
1
0
ENDTAB
0
TABLE
2
BLOCK_RECORD
5
1
100
AcDbSymbolTable
70
1
0
BLOCK_RECORD
5
1F
100
AcDbSymbolTableRecord
100
AcDbBlockTableRecord
2
*MODEL_SPACE
0
BLOCK_RECORD
5
1B
100
AcDbSymbolTableRecord
100
AcDbBlockTableRecord
2
*PAPER_SPACE
0
ENDTAB
0
ENDSEC
0
SECTION
2
BLOCKS
0
BLOCK
5
20
100
AcDbEntity
100
AcDbBlockBegin
2
*MODEL_SPACE
0
ENDBLK
5
21
100
AcDbEntity
100
AcDbBlockEnd
0
BLOCK
5
1C
100
AcDbEntity
100
AcDbBlockBegin
2
*PAPER_SPACE
0
ENDBLK
5
1D
100
AcDbEntity
100
AcDbBlockEnd
0
ENDSEC
0
SECTION
2
ENTITIES
0
LWPOLYLINE
5
100
100
AcDbEntity
8
0
100
AcDbPolyline
90
10
70
1
43
0.0
10
-273
20
-25
10
-150
20
-25
10
-150
20
-100
10
-100
20
-100
10
-100
20
-30
10
63.000000000000007
20
-30
10
63.000000000000007
20
60
10
-95.360466673628693
20
60
10
-95.360466673628693
20
134
10
-273
20
134
0
LWPOLYLINE
5
101
100
AcDbEntity
8
0
100
AcDbPolyline
90
8
70
1
43
0.0
10
32.262804829432497
20
1.8468031276864103
10
32.262804829432497
20
5.8468061388852313
10
40.262804829432497
20
5.8468061388852313
10
40.262804829432497
20
2.00000002980231
10
34.262804516508602
20
2.00000002980231
10
34.262804516508702
20
-12.403194606172899
10
30.2628044718052
20
-12.403194606172899
10
30.2628044718052
20
1.8468031276864005
0
CIRCLE
5
102
100
AcDbEntity
8
0
100
AcDbCircle
10
-252.5
20
55.5
30
0
40
1.25
210
0
220
-0
230
1
0
CIRCLE
5
103
100
AcDbEntity
8
0
100
AcDbCircle
10
-225.5
20
85.499999999999815
30
0
40
1.25
210
0
220
-0
230
1
0
CIRCLE
5
104
100
AcDbEntity
8
0
100
AcDbCircle
10
-252.5
20
95.499999999999801
30
0
40
1.25
210
0
220
-0
230
1
0
CIRCLE
5
105
100
AcDbEntity
8
0
100
AcDbCircle
10
-252.5
20
125.5
30
0
40
1.25
210
0
220
-0
230
1
0
CIRCLE
5
106
100
AcDbEntity
8
0
100
AcDbCircle
10
-225.5
20
95.499999999999801
30
0
40
1.25
210
0
220
-0
230
1
0
CIRCLE
5
107
100
AcDbEntity
8
0
100
AcDbCircle
10
-225.5
20
125.5
30
0
40
1.25
210
0
220
-0
230
1
0
CIRCLE
5
108
100
AcDbEntity
8
0
100
AcDbCircle
10
-225.5
20
55.5
30
0
40
1.25
210
0
220
-0
230
1
0
CIRCLE
5
109
100
AcDbEntity
8
0
100
AcDbCircle
10
-252.5
20
85.499999999999815
30
0
40
1.25
210
0
220
-0
230
1
0
LWPOLYLINE
5
110
100
AcDbEntity
8
0
100
AcDbPolyline
90
12
70
1
43
0.0
10
-198.73691049571502
20
-6.2635112914375313
10
-201.73691064878
20
-6.2635112914372009
10
-201.73691064878
20
-10.263511291437201
10
-198.73691049571502
20
-10.2635112914374
10
-198.73691049571502
20
-22.513510166399705
10
-202.73691042866002
20
-22.513510166399705
10
-202.73691042866002
20
-10.2635112914374
10
-209.73691064878
20
-10.263511291437201
10
-209.73691064878
20
-6.2635112914372009
10
-202.73691042866002
20
-6.2635112914375313
10
-202.73691042866002
20
2.4864867416091996
10
-198.73691049571502
20
2.48648674160918
0
LWPOLYLINE
5
111
100
AcDbEntity
8
0
100
AcDbPolyline
90
6
70
1
43
0.0
10
-143.86120483642912
20
72.542202823011806
10
-143.86120481433204
20
84.542202867715304
10
-139.86120481433201
20
84.542202867715304
10
-139.86120481433201
20
76.542202867715304
10
-135.86120485903501
20
76.542202845617979
10
-135.86120485903501
20
72.542202823011806
0
LWPOLYLINE
5
112
100
AcDbEntity
8
0
100
AcDbPolyline
90
4
70
1
43
0.0
10
-119.861204859035
20
76.542202823011806
10
-119.861204859035
20
72.542202823011806
10
-127.86120485903501
20
72.542202823011806
10
-127.86120485903501
20
76.542202823011806
0
LWPOLYLINE
5
113
100
AcDbEntity
8
0
100
AcDbPolyline
90
4
70
1
43
0.0
10
-139.86120481433201
20
108.54220286771501
10
-143.86120483693844
20
108.54220286771501
10
-143.86120485903601
20
116.54220286771502
10
-139.86120481433201
20
116.54220286771502
0
LWPOLYLINE
5
114
100
AcDbEntity
8
0
100
AcDbPolyline
90
4
70
1
43
0.0
10
-110.36120439709902
20
107.96320282301201
10
-110.36120439709902
20
99.963202823011997
10
-114.36120439709902
20
99.963202823011997
10
-114.36120439709902
20
107.96320282301201
0
LWPOLYLINE
5
115
100
AcDbEntity
8
0
100
AcDbPolyline
90
4
70
1
43
0.0
10
-114.36120439709902
20
91.963202823011997
10
-110.36120439709902
20
91.963202823011997
10
-110.36120439709902
20
83.963202823012011
10
-114.36120439709902
20
83.963202823012011
0
LWPOLYLINE
5
116
100
AcDbEntity
8
0
100
AcDbPolyline
90
4
70
1
43
0.0
10
-114.36120439312363
20
75.963202823011898
10
-110.36120439312361
20
75.963202823011898
10
-110.361204389649
20
67.963202823011997
10
-114.361204389649
20
67.963202823011997
0
LWPOLYLINE
5
117
100
AcDbEntity
8
0
100
AcDbPolyline
90
4
70
1
43
0.0
10
-139.86120481433201
20
92.542202867715304
10
-143.86120481433204
20
92.542202867715304
10
-143.86120481433204
20
100.54220286771502
10
-139.86120481433201
20
100.54220286771502
0
LWPOLYLINE
5
118
100
AcDbEntity
8
0
100
AcDbPolyline
90
4
70
1
43
0.0
10
-225.73691064878003
20
-6.2635112914372009
10
-217.73691064878
20
-6.2635112914372009
10
-217.73691064878
20
-10.263511291437201
10
-225.73691064878003
20
-10.263511291437201
0
LWPOLYLINE
5
119
100
AcDbEntity
8
0
100
AcDbPolyline
90
4
70
1
43
0.0
10
-209.73691042865903
20
28.236488766305001
10
-209.73691042865903
20
24.236488766305001
10
-217.73691042865903
20
24.236488766305001
10
-217.73691042865903
20
28.236488766305001
0
LWPOLYLINE
5
120
100
AcDbEntity
8
0
100
AcDbPolyline
90
4
70
1
43
0.0
10
-225.73691042865903
20
28.236488766305001
10
-225.73691042865903
20
24.236488766305001
10
-233.736910428659
20
24.236488766305001
10
-233.736910428659
20
28.236488766305001
0
LWPOLYLINE
5
121
100
AcDbEntity
8
0
100
AcDbPolyline
90
4
70
1
43
0.0
10
-193.736910428659
20
28.236488766305001
10
-193.736910428659
20
24.236488766305001
10
-201.736910428659
20
24.236488766305001
10
-201.736910428659
20
28.236488766305001
0
LWPOLYLINE
5
122
100
AcDbEntity
8
0
100
AcDbPolyline
90
4
70
1
43
0.0
10
-241.736910428659
20
28.236909484298501
10
-241.736910428659
20
24.236488766305001
10
-249.73690937812702
20
24.236488766305001
10
-249.73690937812702
20
28.236909484298501
0
LWPOLYLINE
5
123
100
AcDbEntity
8
0
100
AcDbPolyline
90
8
70
1
43
0.0
10
32.262804829432397
20
23.349806138885199
10
30.262804471805104
20
23.3498061388851
10
30.262804471805005
20
38.5968061388851
10
34.262804516508503
20
38.5968061388851
10
34.262804516508602
20
23.3498061388851
10
40.262804829432397
20
23.349806138885199
10
40.262804829432397
20
19.349806138885199
10
32.262804829432397
20
19.349806138885199
0
LWPOLYLINE
5
124
100
AcDbEntity
8
0
100
AcDbPolyline
90
4
70
1
43
0.0
10
48.262804829432504
20
5.8468061388852313
10
56.262804829432504
20
5.8468061388852197
10
56.262804829432504
20
1.8468053557601405
10
48.262804829432504
20
1.8468053557601403
0
LWPOLYLINE
5
125
100
AcDbEntity
8
0
100
AcDbPolyline
90
4
70
1
43
0.0
10
48.262804829432397
20
19.349806138885199
10
48.262804829432397
20
23.349806138885199
10
56.262804829432405
20
23.349806138885199
10
56.262804829432405
20
19.349806138885199
0
LWPOLYLINE
5
126
100
AcDbEntity
8
0
100
AcDbPolyline
90
4
70
1
43
0.0
10
-77.236911341966817
20
35.623174993847805
10
-77.236911341966817
20
39.623174993847698
10
-68.236911341966817
20
39.623174993847698
10
-68.236911341966817
20
35.623174993847805
0
LWPOLYLINE
5
127
100
AcDbEntity
8
0
100
AcDbPolyline
90
4
70
1
43
0.0
10
-95.236911341966803
20
35.623174993847805
10
-95.236911341966803
20
39.623174993847698
10
-86.236911341966817
20
39.623174993847698
10
-86.236911341966817
20
35.623174993847805
0
LWPOLYLINE
5
128
100
AcDbEntity
8
0
100
AcDbPolyline
90
4
70
1
43
0.0
10
-113.236911341967
20
35.623174993847805
10
-113.236911341967
20
39.623174993847698
10
-104.23691134196702
20
39.623174993847698
10
-104.23691134196702
20
35.623174993847805
0
LWPOLYLINE
5
129
100
AcDbEntity
8
0
100
AcDbPolyline
90
4
70
1
43
0.0
10
-77.236911341966817
20
-8.3768250061523108
10
-68.236911341966817
20
-8.3768250061523108
10
-68.236911341966817
20
-12.376825006152302
10
-77.236911341966817
20
-12.376825006152302
0
LWPOLYLINE
5
130
100
AcDbEntity
8
0
100
AcDbPolyline
90
4
70
1
43
0.0
10
-113.236911341967
20
-8.3768250061523108
10
-104.23691134196702
20
-8.3768250061523108
10
-104.23691134196702
20
-12.376825006152302
10
-113.236911341967
20
-12.376825006152302
0
LWPOLYLINE
5
131
100
AcDbEntity
8
0
100
AcDbPolyline
90
4
70
1
43
0.0
10
-95.236911341966803
20
-8.3768250061523108
10
-86.236911341966817
20
-8.3768250061523108
10
-86.236911341966817
20
-12.376825006152302
10
-95.236911341966803
20
-12.376825006152302
0
LWPOLYLINE
5
132
100
AcDbEntity
8
0
100
AcDbPolyline
90
4
70
1
43
0.0
10
-138.370375953766
20
-73.456377571014599
10
-138.370375953766
20
-65.456377571014599
10
-134.37037595376603
20
-65.456377571014599
10
-134.37037595376603
20
-73.456377571014599
0
LWPOLYLINE
5
133
100
AcDbEntity
8
0
100
AcDbPolyline
90
4
70
1
43
0.0
10
-119.37037595376601
20
-81.456377571014514
10
-115.37037595376601
20
-81.456377571014514
10
-115.37037595376601
20
-89.456377571014499
10
-119.37037595376601
20
-89.456377571014499
0
LWPOLYLINE
5
134
100
AcDbEntity
8
0
100
AcDbPolyline
90
4
70
1
43
0.0
10
-119.37037595376601
20
-65.456377571014499
10
-115.37037595376601
20
-65.456377571014499
10
-115.37037595376601
20
-73.456377571014499
10
-119.37037595376601
20
-73.456377571014499
0
LWPOLYLINE
5
135
100
AcDbEntity
8
0
100
AcDbPolyline
90
6
70
1
43
0.0
10
-119.37037595376601
20
-49.456377571014507
10
-123.37037595376501
20
-49.456377913273222
10
-123.37037595376501
20
-45.4563782564679
10
-115.37037595376502
20
-45.4563782564679
10
-115.37037595376601
20
-57.456377571014499
10
-119.37037595376601
20
-57.456377571014499
0
LWPOLYLINE
5
136
100
AcDbEntity
8
0
100
AcDbPolyline
90
4
70
1
43
0.0
10
-138.370375953766
20
-81.456377571014599
10
-134.37037595376603
20
-81.456377571014599
10
-134.37037595376603
20
-89.456377571014599
10
-138.370375953766
20
-89.456377571014599
0
LWPOLYLINE
5
137
100
AcDbEntity
8
0
100
AcDbPolyline
90
6
70
1
43
0.0
10
-131.37037595376501
20
-49.456378256467907
10
-134.37037595376603
20
-49.456377914209241
10
-134.37037595376603
20
-57.456377571014599
10
-138.370375953766
20
-57.456377571014599
10
-138.37037595376501
20
-45.4563782564679
10
-131.37037595376501
20
-45.4563782564679
0
LWPOLYLINE
5
138
100
AcDbEntity
8
0
100
AcDbPolyline
90
4
70
1
43
0.0
10
-88.236911341966916
20
-22.376825006152302
10
-88.236911341966916
20
-14.3768250061523
10
-84.236911341966604
20
-14.3768250061523
10
-84.236911341966604
20
-22.376825006152302
0
LWPOLYLINE
5
139
100
AcDbEntity
8
0
100
AcDbPolyline
90
4
70
1
43
0.0
10
-84.236911341966604
20
41.623174993847698
10
-88.236911341966703
20
41.623174993847698
10
-88.236911341966803
20
49.623174993847705
10
-84.236911341966604
20
49.623174993847705
0
LWPOLYLINE
5
140
100
AcDbEntity
8
0
100
AcDbPolyline
90
4
70
1
43
0.0
10
-84.236911341966604
20
-6.37682500615231
10
-88.236911341966916
20
-6.37682500615231
10
-88.236911341966916
20
1.6231749938476903
10
-84.236911341966604
20
1.6231749938476903
0
LWPOLYLINE
5
141
100
AcDbEntity
8
0
100
AcDbPolyline
90
4
70
1
43
0.0
10
-84.236911341966604
20
25.623174993847702
10
-88.236911341966703
20
25.623174993847702
10
-88.236911341966703
20
33.623174993847698
10
-84.236911341966604
20
33.623174993847698
0
LWPOLYLINE
5
142
100
AcDbEntity
8
0
100
AcDbPolyline
90
4
70
1
43
0.0
10
-84.236911341966604
20
25.623174993847702
10
-76.236911341966604
20
25.623174993847702
10
-76.236911341966604
20
21.623174993847702
10
-84.236911341966604
20
21.623174993847702
0
LWPOLYLINE
5
143
100
AcDbEntity
8
0
100
AcDbPolyline
90
4
70
1
43
0.0
10
-84.236911341966604
20
9.6231749938476892
10
-88.236911341966803
20
9.6231749938476892
10
-88.236911341966803
20
17.623174993847705
10
-84.236911341966604
20
17.623174993847705
0
CIRCLE
5
144
100
AcDbEntity
8
0
100
AcDbCircle
10
-214.46000000000001
20
116.03000000000002
30
0
40
1.5875000000000101
210
0
220
-0
230
1
0
CIRCLE
5
145
100
AcDbEntity
8
0
100
AcDbCircle
10
-181.44000000000003
20
63.960000000000207
30
0
40
1.5875000000000101
210
0
220
-0
230
1
0
CIRCLE
5
146
100
AcDbEntity
8
0
100
AcDbCircle
10
-166.20000000000002
20
114.76000000000001
30
0
40
1.5875000000000101
210
0
220
-0
230
1
0
CIRCLE
5
147
100
AcDbEntity
8
0
100
AcDbCircle
10
-209.38000000000002
20
63.960000000000207
30
0
40
1.5875000000000101
210
0
220
-0
230
1
0
CIRCLE
5
148
100
AcDbEntity
8
0
100
AcDbCircle
10
-264.10967473652897
20
85.853677499473804
30
0
40
1.49999999999999
210
-0
220
0
230
1
0
CIRCLE
5
149
100
AcDbEntity
8
0
100
AcDbCircle
10
-264.102279736529
20
94.853674461360796
30
0
40
1.49999999999999
210
-0
220
0
230
1
0
LWPOLYLINE
5
150
100
AcDbEntity
8
0
100
AcDbPolyline
90
4
70
1
43
0.0
10
-198.73691049571502
20
48.486488268978299
10
-198.73691049571502
20
37.986488268978306
10
-202.73691049571499
20
37.986488268978306
10
-202.73691049571499
20
48.486488268978299
0
ENDSEC
0
SECTION
2
OBJECTS
0
DICTIONARY
5
C
100
AcDbDictionary
3
ACAD_GROUP
350
D
3
ACAD_MLINESTYLE
350
17
0
DICTIONARY
5
D
100
AcDbDictionary
0
DICTIONARY
5
1A
330
C
100
AcDbDictionary
0
DICTIONARY
5
17
100
AcDbDictionary
0
ENDSEC
0
EOF
